<svg width="1280" height="720" viewBox="0 0 1280 720" fill="none" xmlns="http://www.w3.org/2000/svg">
  <defs>
    <linearGradient id="bg" x1="0" y1="0" x2="1280" y2="720"><stop stop-color="#050B16"/><stop offset="1" stop-color="#160B33"/></linearGradient>
    <linearGradient id="grad" x1="0" y1="0" x2="1" y2="1"><stop stop-color="#31E8FF"/><stop offset="0.55" stop-color="#7568FF"/><stop offset="1" stop-color="#C33CFF"/></linearGradient>
    <linearGradient id="card" x1="0" y1="0" x2="1" y2="1"><stop stop-color="#FFFFFF" stop-opacity="0.18"/><stop offset="1" stop-color="#FFFFFF" stop-opacity="0.05"/></linearGradient>
    <filter id="shadow" x="-20%" y="-20%" width="140%" height="140%"><feDropShadow dx="0" dy="24" stdDeviation="28" flood-color="#000" flood-opacity="0.45"/></filter>
  </defs>
  <rect width="1280" height="720" rx="36" fill="url(#bg)"/>
  <circle cx="180" cy="120" r="170" fill="#38E8FF" opacity="0.08"/>
  <circle cx="1120" cy="610" r="230" fill="#B43CFF" opacity="0.12"/>
  <text x="640" y="76" text-anchor="middle" fill="#FFFFFF" font-family="Inter, Arial" font-size="42" font-weight="900">BudgetO App Experience</text>
  <text x="640" y="113" text-anchor="middle" fill="#AFC7FF" font-family="Inter, Arial" font-size="19">Dashboard • Expenses • Income • Insights • Profile</text>
  <g filter="url(#shadow)">
    <g transform="translate(80 160)">
      <rect width="190" height="410" rx="34" fill="#050A13" stroke="#FFFFFF" stroke-opacity="0.15" stroke-width="2"/>
      <rect x="14" y="18" width="162" height="374" rx="26" fill="#0D1630"/>
      <rect x="31" y="43" width="78" height="10" rx="5" fill="#FFFFFF" opacity="0.35"/>
      <text x="31" y="88" fill="#FFFFFF" font-family="Inter, Arial" font-size="18" font-weight="800">Dashboard</text>
      <rect x="31" y="111" width="128" height="74" rx="18" fill="url(#grad)" opacity="0.95"/>
      <text x="47" y="144" fill="#FFFFFF" font-size="14" font-family="Inter, Arial">Balance</text><text x="47" y="170" fill="#FFFFFF" font-size="24" font-weight="900" font-family="Inter, Arial">$8.4k</text>
      <rect x="31" y="210" width="58" height="68" rx="14" fill="#0E2A3C"/><rect x="101" y="210" width="58" height="68" rx="14" fill="#2A173C"/>
      <rect x="31" y="303" width="128" height="16" rx="8" fill="#FFFFFF" opacity="0.14"/><rect x="31" y="334" width="110" height="16" rx="8" fill="#FFFFFF" opacity="0.1"/>
      <text x="95" y="440" text-anchor="middle" fill="#AFC7FF" font-size="16" font-weight="700" font-family="Inter, Arial">Home</text>
    </g>
    <g transform="translate(315 160)">
      <rect width="190" height="410" rx="34" fill="#050A13" stroke="#FFFFFF" stroke-opacity="0.15" stroke-width="2"/>
      <rect x="14" y="18" width="162" height="374" rx="26" fill="#0D1630"/>
      <text x="31" y="80" fill="#FFFFFF" font-family="Inter, Arial" font-size="18" font-weight="800">Expenses</text>
      <rect x="31" y="105" width="128" height="34" rx="17" fill="url(#card)"/><rect x="31" y="163" width="128" height="54" rx="14" fill="#351B34"/><rect x="31" y="233" width="128" height="54" rx="14" fill="#352132"/><rect x="31" y="303" width="128" height="54" rx="14" fill="#2D1730"/>
      <circle cx="50" cy="190" r="10" fill="#FF6B9D"/><circle cx="50" cy="260" r="10" fill="#FFC857"/><circle cx="50" cy="330" r="10" fill="#FF6B6B"/>
      <text x="70" y="196" fill="#FFFFFF" font-size="13" font-family="Inter, Arial">Food</text><text x="70" y="266" fill="#FFFFFF" font-size="13" font-family="Inter, Arial">Bills</text><text x="70" y="336" fill="#FFFFFF" font-size="13" font-family="Inter, Arial">Shopping</text>
      <text x="95" y="440" text-anchor="middle" fill="#AFC7FF" font-size="16" font-weight="700" font-family="Inter, Arial">Expenses</text>
    </g>
    <g transform="translate(550 160)">
      <rect width="190" height="410" rx="34" fill="#050A13" stroke="#FFFFFF" stroke-opacity="0.15" stroke-width="2"/>
      <rect x="14" y="18" width="162" height="374" rx="26" fill="#0D1630"/>
      <text x="31" y="80" fill="#FFFFFF" font-family="Inter, Arial" font-size="18" font-weight="800">Income</text>
      <rect x="31" y="105" width="128" height="74" rx="18" fill="#0F3A36"/><text x="47" y="138" fill="#6CFFCB" font-size="13" font-family="Inter, Arial">Salary</text><text x="47" y="164" fill="#FFFFFF" font-size="23" font-weight="900" font-family="Inter, Arial">+$3,200</text>
      <rect x="31" y="205" width="128" height="44" rx="14" fill="#142A40"/><rect x="31" y="267" width="128" height="44" rx="14" fill="#143B35"/><rect x="31" y="329" width="128" height="44" rx="14" fill="#1A314B"/>
      <text x="95" y="440" text-anchor="middle" fill="#AFC7FF" font-size="16" font-weight="700" font-family="Inter, Arial">Income</text>
    </g>
    <g transform="translate(785 160)">
      <rect width="190" height="410" rx="34" fill="#050A13" stroke="#FFFFFF" stroke-opacity="0.15" stroke-width="2"/>
      <rect x="14" y="18" width="162" height="374" rx="26" fill="#0D1630"/>
      <text x="31" y="80" fill="#FFFFFF" font-family="Inter, Arial" font-size="18" font-weight="800">Insights</text>
      <circle cx="95" cy="166" r="58" fill="none" stroke="#FFFFFF" stroke-opacity="0.1" stroke-width="18"/><path d="M95 108A58 58 0 0 1 153 166" stroke="#37E8FF" stroke-width="18" stroke-linecap="round"/>
      <rect x="31" y="252" width="128" height="28" rx="14" fill="#FFFFFF" opacity="0.12"/><rect x="31" y="298" width="108" height="28" rx="14" fill="#FFFFFF" opacity="0.10"/><rect x="31" y="344" width="90" height="28" rx="14" fill="#FFFFFF" opacity="0.08"/>
      <text x="95" y="440" text-anchor="middle" fill="#AFC7FF" font-size="16" font-weight="700" font-family="Inter, Arial">Insights</text>
    </g>
    <g transform="translate(1020 160)">
      <rect width="190" height="410" rx="34" fill="#050A13" stroke="#FFFFFF" stroke-opacity="0.15" stroke-width="2"/>
      <rect x="14" y="18" width="162" height="374" rx="26" fill="#0D1630"/>
      <text x="31" y="80" fill="#FFFFFF" font-family="Inter, Arial" font-size="18" font-weight="800">Profile</text>
      <circle cx="95" cy="145" r="44" fill="url(#grad)"/><text x="95" y="160" text-anchor="middle" fill="#FFFFFF" font-size="36" font-weight="900" font-family="Inter, Arial">M</text>
      <rect x="31" y="224" width="128" height="42" rx="14" fill="#FFFFFF" opacity="0.12"/><rect x="31" y="288" width="128" height="42" rx="14" fill="#FFFFFF" opacity="0.09"/><rect x="31" y="352" width="128" height="42" rx="14" fill="#FFFFFF" opacity="0.07"/>
      <text x="95" y="440" text-anchor="middle" fill="#AFC7FF" font-size="16" font-weight="700" font-family="Inter, Arial">Profile</text>
    </g>
  </g>
</svg>
