<svg width="1280" height="640" viewBox="0 0 1280 640" fill="none" xmlns="http://www.w3.org/2000/svg">
  <defs>
    <linearGradient id="bg" x1="0" y1="0" x2="1280" y2="640" gradientUnits="userSpaceOnUse">
      <stop stop-color="#07111F"/>
      <stop offset="0.45" stop-color="#11103A"/>
      <stop offset="1" stop-color="#230B46"/>
    </linearGradient>
    <linearGradient id="primary" x1="0" y1="0" x2="1" y2="1">
      <stop stop-color="#37E8FF"/>
      <stop offset="0.5" stop-color="#7868FF"/>
      <stop offset="1" stop-color="#B43CFF"/>
    </linearGradient>
    <linearGradient id="card" x1="0" y1="0" x2="1" y2="1">
      <stop stop-color="#FFFFFF" stop-opacity="0.18"/>
      <stop offset="1" stop-color="#FFFFFF" stop-opacity="0.05"/>
    </linearGradient>
    <filter id="glow" x="-40%" y="-40%" width="180%" height="180%">
      <feGaussianBlur stdDeviation="18" result="blur"/>
      <feColorMatrix in="blur" type="matrix" values="0 0 0 0 0.3 0 0 0 0 0.6 0 0 0 0 1 0 0 0 0.75 0"/>
      <feBlend in="SourceGraphic"/>
    </filter>
  </defs>
  <rect width="1280" height="640" rx="34" fill="url(#bg)"/>
  <circle cx="1040" cy="130" r="170" fill="#6D5DFF" opacity="0.22" filter="url(#glow)"/>
  <circle cx="210" cy="520" r="210" fill="#00E5FF" opacity="0.12" filter="url(#glow)"/>
  <path d="M80 501C235 410 346 448 494 358C620 282 775 164 1198 186" stroke="#38E8FF" stroke-opacity="0.26" stroke-width="3"/>
  <path d="M92 548C284 452 398 510 564 422C770 313 846 252 1188 285" stroke="#9B5CFF" stroke-opacity="0.25" stroke-width="3"/>
  <g transform="translate(800 70)">
    <rect x="0" y="0" width="305" height="500" rx="42" fill="#050B16" stroke="#FFFFFF" stroke-opacity="0.18" stroke-width="3"/>
    <rect x="22" y="24" width="261" height="452" rx="32" fill="#0B1327"/>
    <rect x="45" y="56" width="90" height="12" rx="6" fill="#FFFFFF" opacity="0.45"/>
    <text x="45" y="110" fill="#FFFFFF" font-family="Inter, Arial" font-size="24" font-weight="700">Dashboard</text>
    <text x="45" y="146" fill="#8EA2C7" font-family="Inter, Arial" font-size="14">Current Balance</text>
    <text x="45" y="188" fill="#FFFFFF" font-family="Inter, Arial" font-size="38" font-weight="800">$8,420</text>
    <rect x="45" y="222" width="215" height="82" rx="18" fill="url(#card)" stroke="#FFFFFF" stroke-opacity="0.12"/>
    <polyline points="65,280 95,258 125,268 155,238 190,248 228,226" fill="none" stroke="#37E8FF" stroke-width="5" stroke-linecap="round" stroke-linejoin="round"/>
    <rect x="45" y="330" width="98" height="94" rx="18" fill="#112040"/>
    <text x="62" y="366" fill="#38E8FF" font-family="Inter, Arial" font-size="15" font-weight="700">Income</text>
    <text x="62" y="402" fill="#FFFFFF" font-family="Inter, Arial" font-size="22" font-weight="800">+$2.8k</text>
    <rect x="162" y="330" width="98" height="94" rx="18" fill="#211A3D"/>
    <text x="179" y="366" fill="#FF6B9D" font-family="Inter, Arial" font-size="15" font-weight="700">Expense</text>
    <text x="179" y="402" fill="#FFFFFF" font-family="Inter, Arial" font-size="22" font-weight="800">-$930</text>
  </g>
  <g transform="translate(100 150)">
    <rect x="0" y="0" width="620" height="320" rx="32" fill="url(#card)" stroke="#FFFFFF" stroke-opacity="0.14"/>
    <text x="42" y="88" fill="#FFFFFF" font-family="Inter, Arial" font-size="78" font-weight="900" letter-spacing="4">BudgetO</text>
    <text x="46" y="132" fill="#AFC7FF" font-family="Inter, Arial" font-size="26" font-weight="500">Track • Analyze • Grow Your Money</text>
    <rect x="48" y="176" width="154" height="44" rx="22" fill="url(#primary)"/>
    <text x="77" y="205" fill="#FFFFFF" font-family="Inter, Arial" font-size="16" font-weight="800">React Native</text>
    <rect x="218" y="176" width="120" height="44" rx="22" fill="#FFFFFF" fill-opacity="0.1" stroke="#FFFFFF" stroke-opacity="0.13"/>
    <text x="251" y="205" fill="#FFFFFF" font-family="Inter, Arial" font-size="16" font-weight="700">Expo</text>
    <rect x="354" y="176" width="138" height="44" rx="22" fill="#FFFFFF" fill-opacity="0.1" stroke="#FFFFFF" stroke-opacity="0.13"/>
    <text x="389" y="205" fill="#FFFFFF" font-family="Inter, Arial" font-size="16" font-weight="700">Firebase</text>
    <text x="48" y="270" fill="#DDE8FF" font-family="Inter, Arial" font-size="22" font-weight="600">Personal finance tracking with income, expenses, insights, profiles, currencies, and cloud sync.</text>
  </g>
  <g opacity="0.75">
    <rect x="1120" y="450" width="88" height="88" rx="24" fill="#FFFFFF" fill-opacity="0.08"/>
    <text x="1145" y="508" fill="#37E8FF" font-family="Arial" font-size="44" font-weight="800">$</text>
    <rect x="690" y="62" width="80" height="80" rx="22" fill="#FFFFFF" fill-opacity="0.07"/>
    <text x="710" y="116" fill="#B43CFF" font-family="Arial" font-size="40" font-weight="800">₨</text>
  </g>
</svg>
